<?xml version="1.0" standalone="no"?>
<!DOCTYPE svg PUBLIC "-//W3C//DTD SVG 20010904//EN"
 "http://www.w3.org/TR/2001/REC-SVG-20010904/DTD/svg10.dtd">
<svg version="1.0" xmlns="http://www.w3.org/2000/svg"
 width="1920.000000pt" height="1080.000000pt" viewBox="0 0 1920.000000 1080.000000"
 preserveAspectRatio="xMidYMid meet">

<g transform="translate(0.000000,1080.000000) scale(0.100000,-0.100000)"
fill="#000000" stroke="none">
<path d="M0 7215 l0 -3585 6719 0 6720 0 15 22 c9 12 16 29 16 36 0 8 6 28 14
45 8 18 24 59 37 92 13 33 27 64 31 69 4 6 8 16 8 23 0 6 14 43 31 80 32 68
63 140 79 178 4 11 15 36 24 57 9 20 16 41 16 46 0 6 6 23 14 39 16 32 27 57
55 130 12 29 30 77 42 105 11 29 24 62 28 73 5 11 23 56 41 100 18 44 36 89
41 100 4 11 20 49 34 85 14 36 30 74 34 85 5 11 16 40 26 65 9 25 23 59 30 75
57 135 75 179 75 190 0 7 14 25 31 39 31 27 66 33 97 17 23 -11 109 -38 152
-46 19 -4 40 -11 45 -15 6 -4 28 -11 50 -15 22 -4 45 -10 50 -15 6 -4 27 -11
49 -14 21 -4 46 -11 55 -15 9 -5 42 -16 74 -25 92 -26 169 -48 212 -61 22 -7
67 -20 100 -30 58 -17 118 -35 200 -60 48 -15 123 -37 225 -66 41 -11 84 -24
95 -28 19 -8 76 -25 180 -54 68 -19 194 -57 225 -67 14 -5 52 -16 85 -25 63
-18 132 -39 200 -60 86 -28 142 -43 175 -50 19 -4 40 -11 45 -15 6 -4 27 -11
49 -14 21 -4 46 -11 55 -15 9 -5 42 -16 74 -25 100 -28 171 -49 212 -61 22 -7
67 -21 100 -30 33 -10 78 -23 100 -30 22 -6 67 -20 100 -30 33 -9 78 -23 100
-30 22 -7 67 -20 100 -30 33 -10 78 -24 100 -30 22 -7 65 -20 95 -29 30 -8 99
-29 153 -46 54 -16 107 -30 117 -30 10 0 21 -4 25 -9 3 -5 20 -13 38 -16 17
-4 55 -14 82 -22 28 -8 75 -21 105 -30 30 -9 73 -21 95 -28 22 -6 67 -20 100
-29 206 -59 265 -79 265 -87 0 -4 12 -12 28 -18 88 -34 242 -150 242 -183 0
-19 -23 -86 -44 -128 -7 -14 -21 -52 -32 -85 -10 -33 -22 -62 -25 -65 -4 -3
-10 -21 -14 -40 -4 -19 -11 -39 -15 -45 -5 -5 -18 -39 -30 -75 -12 -36 -28
-79 -36 -97 -8 -17 -14 -36 -14 -41 0 -6 -6 -23 -14 -39 -8 -15 -21 -49 -30
-75 -31 -93 -49 -143 -63 -175 -7 -17 -13 -37 -13 -45 0 -8 -4 -18 -8 -24 -5
-5 -19 -38 -32 -74 -13 -36 -27 -67 -31 -70 -3 -3 -10 -20 -14 -38 -4 -18 -13
-45 -21 -60 -8 -15 -14 -32 -14 -38 0 -7 -7 -25 -15 -40 -8 -16 -15 -36 -15
-45 0 -8 -7 -24 -15 -35 -8 -10 -15 -28 -15 -40 0 -11 -4 -24 -9 -30 -4 -5
-23 -52 -41 -104 -18 -52 -47 -133 -65 -180 -73 -189 -95 -253 -95 -271 0 -10
-4 -19 -10 -19 -5 0 -13 -18 -16 -40 -4 -22 -10 -40 -13 -40 -4 0 -13 -16 -20
-36 -12 -33 -16 -36 -45 -31 -81 14 -144 29 -173 43 -17 7 -40 14 -52 14 -12
0 -21 4 -21 8 0 4 -28 13 -62 19 -35 6 -128 34 -208 62 -80 28 -174 61 -210
72 -36 12 -81 27 -100 34 -19 8 -60 22 -90 31 -30 9 -64 21 -75 25 -32 14
-108 40 -140 49 -46 13 -276 91 -310 105 -32 13 -35 14 -215 75 -135 45 -178
60 -205 71 -11 4 -56 19 -100 33 -44 14 -125 42 -180 61 -55 20 -114 40 -131
44 -18 5 -37 12 -44 16 -7 4 -26 11 -44 16 -17 4 -96 31 -176 59 -80 28 -158
55 -175 60 -33 9 -89 29 -120 41 -51 22 -295 101 -334 110 -24 5 -49 13 -55
17 -6 4 -45 18 -86 31 -41 13 -82 25 -90 28 -113 42 -182 66 -215 74 -21 6
-44 13 -50 17 -5 4 -37 16 -70 26 -33 10 -74 24 -91 31 -18 8 -48 17 -68 20
-20 4 -39 11 -42 16 -3 5 -13 9 -22 9 -9 0 -30 7 -46 15 -15 8 -36 15 -45 15
-9 0 -29 7 -45 15 -15 8 -36 15 -45 15 -9 0 -29 7 -45 15 -15 8 -33 15 -39 15
-6 0 -40 13 -76 29 -80 34 -123 50 -176 62 -21 6 -44 14 -50 18 -5 5 -29 11
-52 15 -35 5 -43 3 -43 -9 0 -8 8 -15 17 -15 9 0 13 -3 10 -7 -4 -3 -2 -12 4
-20 10 -11 -1086 -13 -6695 -13 -5954 0 -6706 -2 -6706 -15 0 -13 763 -15
6809 -15 l6808 0 69 -26 c38 -14 105 -39 149 -55 44 -17 97 -34 118 -40 21 -5
45 -13 55 -18 9 -5 44 -17 77 -26 33 -9 74 -23 90 -30 17 -7 55 -20 85 -30 30
-10 66 -22 80 -27 14 -6 77 -28 140 -49 63 -21 147 -49 185 -63 l70 -24 -7367
-1 -7368 -1 0 -1410 0 -1410 9600 0 9600 0 0 1410 0 1410 -366 0 c-345 0 -366
1 -359 18 4 9 23 59 41 111 18 52 38 99 43 104 6 6 11 20 11 32 0 11 7 31 16
43 8 12 13 22 10 22 -3 0 0 14 5 30 l11 30 294 0 c255 0 294 2 294 15 0 13
-36 15 -267 15 -177 0 -263 4 -253 10 8 5 11 10 6 10 -5 0 -4 6 2 12 5 7 18
40 27 73 10 33 21 65 25 70 4 6 15 33 23 60 9 28 25 73 35 100 l20 50 191 3
191 2 0 3585 0 3585 -9600 0 -9600 0 0 -3585z"/>
<path d="M14140 5046 c-5 -5 -10 -14 -10 -19 0 -10 -23 -67 -46 -110 -8 -16
-14 -35 -14 -44 0 -8 -6 -27 -14 -41 -8 -15 -21 -45 -29 -67 -8 -22 -31 -78
-50 -125 -18 -47 -40 -101 -47 -120 -6 -19 -16 -44 -20 -55 -5 -11 -18 -45
-30 -75 -12 -30 -28 -68 -36 -83 -8 -16 -14 -33 -14 -39 0 -5 -6 -24 -14 -41
-7 -18 -20 -50 -29 -72 -24 -63 -57 -148 -66 -170 -5 -11 -15 -38 -24 -60 -24
-63 -57 -148 -69 -175 -5 -14 -16 -38 -23 -55 -7 -16 -19 -48 -28 -70 -8 -22
-22 -58 -31 -80 -26 -66 -25 -95 4 -95 10 0 34 -6 52 -14 35 -15 172 -62 223
-76 17 -4 46 -14 65 -21 19 -6 51 -17 70 -24 19 -7 51 -18 70 -24 19 -7 49
-17 65 -21 28 -8 145 -47 210 -71 17 -6 44 -14 60 -19 34 -9 90 -29 120 -42
36 -15 239 -78 272 -84 18 -3 33 -10 33 -15 0 -5 7 -9 16 -9 11 0 14 6 8 23
-7 22 -7 22 15 3 16 -15 18 -21 9 -28 -10 -6 -9 -8 2 -8 8 0 22 5 30 10 12 8
12 10 1 10 -8 0 -12 3 -8 6 13 13 27 -7 17 -25 -8 -16 -5 -19 23 -24 18 -3 54
-3 80 0 34 4 47 2 47 -7 0 -8 -8 -10 -25 -6 -14 4 -25 2 -25 -4 0 -5 7 -10 15
-10 20 0 138 -40 150 -51 12 -12 35 -11 35 1 0 6 -9 10 -20 10 -11 0 -20 5
-20 10 0 13 13 13 44 -2 22 -9 24 -14 13 -26 -10 -13 -9 -15 11 -10 14 4 25 1
30 -9 5 -8 27 -16 52 -18 23 -1 51 -10 61 -19 11 -9 24 -16 31 -16 17 0 78
-20 117 -38 18 -9 50 -17 71 -17 24 0 36 -4 33 -11 -2 -6 6 -14 19 -18 34 -9
50 -7 43 4 -3 6 0 10 7 11 7 0 4 4 -7 9 -13 5 -14 9 -5 9 8 0 24 -4 35 -9 16
-7 17 -9 3 -9 -10 -1 -16 -8 -15 -20 1 -15 8 -17 42 -15 24 2 35 0 27 -5 -10
-6 -8 -10 10 -16 12 -4 28 -8 33 -9 6 -1 15 -5 22 -9 14 -9 43 1 43 15 0 5 4
7 9 4 5 -3 7 -14 4 -24 -4 -15 8 -22 64 -40 94 -29 164 -52 188 -61 28 -11 67
-24 240 -81 83 -27 164 -54 180 -60 17 -6 84 -29 150 -51 66 -21 129 -43 140
-48 11 -4 70 -24 130 -44 110 -36 149 -49 215 -72 19 -7 64 -22 100 -33 75
-24 97 -31 200 -68 118 -41 122 -41 143 4 9 21 17 45 17 53 0 8 4 19 9 25 5 5
14 25 19 44 17 57 41 124 52 142 6 10 10 26 10 36 0 9 6 26 14 37 7 11 16 31
19 45 3 14 15 50 26 80 38 97 52 134 63 170 5 19 13 40 16 45 7 11 58 152 74
205 5 19 14 40 18 45 4 6 10 21 13 35 3 14 15 50 27 80 12 30 25 66 30 80 5
14 18 50 30 80 12 30 25 69 29 85 4 17 13 39 19 50 14 27 72 188 72 202 0 6 7
24 15 39 8 16 15 43 15 60 0 34 -26 52 -110 73 -25 7 -62 16 -83 22 -21 5 -45
13 -55 18 -9 5 -44 16 -77 26 -83 24 -134 40 -245 74 -52 16 -142 44 -200 61
-58 18 -122 38 -143 46 -20 8 -45 14 -55 14 -9 0 -30 7 -46 15 -15 8 -35 15
-43 15 -14 0 -74 17 -153 45 -19 7 -60 20 -90 28 -74 22 -246 75 -295 92 -60
20 -118 28 -110 16 3 -7 0 -8 -9 -5 -9 3 -16 1 -16 -5 0 -13 -36 -15 -45 -2
-3 5 7 11 22 13 44 5 29 22 -27 33 -29 6 -48 13 -44 18 7 6 -28 11 -66 9 -8 0
-19 6 -23 15 -11 18 -49 10 -84 -17 -23 -18 -23 -19 -3 -25 28 -9 25 -25 -5
-25 -22 0 -25 4 -25 35 0 30 3 35 23 35 12 0 29 5 37 10 12 8 11 10 -6 10 -12
0 -38 7 -58 15 -22 10 -52 14 -74 10 -20 -3 -31 -2 -24 1 17 8 15 25 -2 18 -8
-3 -17 -1 -21 5 -3 6 -17 11 -30 11 -13 0 -25 5 -27 10 -2 6 -23 12 -47 15
-24 2 -47 8 -50 13 -3 5 -27 12 -53 16 -27 4 -48 11 -48 15 0 5 -19 11 -42 15
-23 4 -47 11 -53 16 -5 4 -28 11 -50 15 -31 5 -36 4 -22 -5 9 -6 17 -16 17
-21 0 -6 -7 -3 -16 6 -10 9 -24 13 -33 10 -9 -4 -32 -9 -51 -11 -26 -3 -29 -2
-12 4 21 6 17 9 -31 26 -56 19 -147 16 -147 -5 0 -12 22 -12 54 1 16 6 27 6
31 0 4 -6 -3 -10 -14 -10 -11 0 -24 -7 -29 -16 -8 -15 -11 -15 -31 2 -27 23
-27 44 -1 44 12 0 35 7 52 16 16 9 27 11 24 6 -3 -6 12 -13 36 -17 24 -4 45
-11 48 -16 4 -5 20 -11 37 -15 22 -4 32 -2 36 10 4 11 1 16 -12 16 -17 0 -133
33 -176 49 -11 5 -67 23 -125 41 -58 17 -123 38 -145 45 -22 7 -65 20 -95 29
-119 35 -196 58 -215 66 -11 4 -47 15 -80 25 -33 9 -75 23 -93 31 -18 8 -40
14 -50 14 -9 0 -37 7 -62 15 -190 62 -229 74 -260 80 -19 4 -39 10 -45 14 -26
16 -95 27 -105 17z m1202 -391 c3 -15 1 -22 -5 -18 -10 6 -6 -27 8 -59 12 -29
-9 -20 -22 9 -16 33 -17 53 -3 53 6 0 10 9 10 20 0 28 7 25 12 -5z m158 -90
c0 -14 -4 -25 -10 -25 -5 0 -10 5 -10 11 0 6 -6 9 -12 6 -7 -2 -22 -1 -33 4
-19 7 -19 8 2 8 12 1 25 6 28 11 12 20 35 10 35 -15z m-207 -10 c-3 -9 -8 -14
-10 -11 -3 3 -2 9 2 15 9 16 15 13 8 -4z m24 -70 c-4 -8 -11 -15 -17 -15 -6 0
-6 7 2 20 14 22 24 19 15 -5z m543 15 c-36 -12 -60 -12 -60 0 0 6 19 10 43 9
36 -1 38 -2 17 -9z m104 -9 c3 -5 -5 -8 -18 -7 -13 0 -22 4 -19 9 6 10 31 9
37 -2z m-1520 -27 c44 -14 97 -32 116 -39 19 -7 43 -16 53 -19 9 -3 22 -17 29
-30 9 -21 6 -40 -17 -108 -15 -46 -31 -87 -36 -92 -5 -6 -9 -27 -9 -47 0 -31
5 -40 33 -56 18 -11 44 -22 57 -26 56 -13 114 -39 131 -60 26 -30 20 -71 -28
-184 -7 -17 -13 -36 -13 -42 0 -6 -9 -31 -21 -55 -27 -57 -48 -61 -151 -24
-46 16 -96 32 -111 35 -37 7 -65 -19 -79 -74 -5 -24 -14 -43 -19 -43 -5 0 -9
-10 -9 -23 0 -33 -35 -100 -60 -115 -22 -14 -46 -8 -165 43 -16 7 -47 19 -68
26 -37 13 -64 35 -55 44 5 6 43 -6 118 -35 58 -23 161 -52 165 -48 2 2 17 46
35 98 18 52 39 107 46 122 8 15 14 36 14 48 0 11 1 20 3 20 6 0 123 -41 142
-50 36 -16 115 -40 135 -40 13 0 23 14 35 48 9 26 23 62 31 80 8 18 14 39 14
46 0 7 7 28 16 46 28 54 26 56 -171 126 -86 30 -92 36 -75 71 7 16 16 42 20
58 5 17 18 55 30 85 41 104 44 130 15 130 -8 0 -29 6 -47 14 -18 8 -74 27
-125 43 -70 21 -89 31 -81 41 13 15 7 16 102 -14z m1441 16 c-3 -5 -15 -10
-26 -10 -10 0 -19 5 -19 10 0 6 12 10 26 10 14 0 23 -4 19 -10z m-538 -32 c-3
-7 -5 -2 -5 12 0 14 2 19 5 13 2 -7 2 -19 0 -25z m86 15 c-13 -2 -35 -2 -50 0
-16 2 -5 4 22 4 28 0 40 -2 28 -4z m517 -3 c0 -5 -7 -10 -16 -10 -8 0 -12 5
-9 10 3 6 10 10 16 10 5 0 9 -4 9 -10z m95 -10 c-3 -5 -11 -10 -16 -10 -6 0
-7 5 -4 10 3 6 11 10 16 10 6 0 7 -4 4 -10z m-605 -9 c0 -5 14 -14 30 -21 17
-7 28 -15 26 -18 -7 -6 -96 21 -96 29 0 4 -10 10 -22 12 -13 2 -4 5 20 6 23 0
42 -3 42 -8z m133 -53 c15 -7 27 -16 27 -20 0 -13 -17 -9 -30 6 -6 8 -21 17
-33 19 -12 2 -15 5 -6 6 8 0 27 -5 42 -11z m104 6 c-3 -3 -12 -4 -19 -1 -8 3
-5 6 6 6 11 1 17 -2 13 -5z m3 -34 c0 -5 -9 -10 -20 -10 -11 0 -20 5 -20 10 0
6 9 10 20 10 11 0 20 -4 20 -10z m670 0 c0 -5 13 -10 29 -10 34 0 49 -15 25
-24 -29 -11 -64 -6 -64 9 0 8 -4 15 -10 15 -5 0 -10 5 -10 10 0 6 7 10 15 10
8 0 15 -4 15 -10z m-1031 -26 c10 -9 -6 -11 -36 -7 -18 3 -33 9 -33 14 0 8 59
1 69 -7z m-89 -4 c0 -5 -5 -10 -11 -10 -5 0 -7 5 -4 10 3 6 8 10 11 10 2 0 4
-4 4 -10z m-25 -49 c5 -17 4 -22 -6 -19 -8 3 -15 17 -16 33 -2 31 11 23 22
-14z m805 19 c0 -5 -11 -10 -25 -10 -14 0 -25 5 -25 10 0 6 11 10 25 10 14 0
25 -4 25 -10z m-520 -19 c0 -3 -22 -6 -50 -6 -46 0 -58 4 -46 16 7 7 96 -2 96
-10z m323 12 c-7 -2 -21 -2 -30 0 -10 3 -4 5 12 5 17 0 24 -2 18 -5z m75 0
c-10 -2 -26 -2 -35 0 -10 3 -2 5 17 5 19 0 27 -2 18 -5z m-1838 -22 c109 -39
133 -52 121 -64 -8 -8 -19 -8 -44 2 -17 7 -46 16 -62 20 -17 4 -40 13 -52 19
-12 7 -31 12 -42 12 -21 0 -27 11 -14 23 11 11 36 8 93 -12z m2450 0 c0 -11
-4 -23 -10 -26 -6 -4 -10 5 -10 19 0 14 5 26 10 26 6 0 10 -9 10 -19z m-561
-5 c9 -11 6 -12 -14 -8 -14 2 -25 8 -25 13 0 14 26 11 39 -5z m-772 -38 c-3
-7 -5 -2 -5 12 0 14 2 19 5 13 2 -7 2 -19 0 -25z m309 24 c7 -5 6 -15 -3 -32
-9 -18 -13 -20 -13 -7 0 9 -4 17 -10 17 -5 0 -10 7 -10 15 0 16 18 20 36 7z
m119 -2 c3 -5 1 -10 -4 -10 -6 0 -11 5 -11 10 0 6 2 10 4 10 3 0 8 -4 11 -10z
m-40 -10 c-3 -5 -13 -10 -21 -10 -8 0 -12 5 -9 10 3 6 13 10 21 10 8 0 12 -4
9 -10z m131 -24 c8 -8 0 -11 -28 -11 -21 0 -38 3 -38 7 0 4 -16 4 -35 1 -22
-3 -35 -2 -35 5 0 22 113 20 136 -2z m377 17 c-7 -2 -21 -2 -30 0 -10 3 -4 5
12 5 17 0 24 -2 18 -5z m-876 -31 c-18 -4 -18 -4 0 -18 17 -13 17 -13 -4 -14
-12 0 -23 6 -26 13 -5 15 24 38 38 29 5 -4 2 -8 -8 -10z m350 2 c-3 -3 -12 -4
-19 -1 -8 3 -5 6 6 6 11 1 17 -2 13 -5z m-194 -11 c-28 -5 -30 -23 -3 -23 11
0 20 -5 20 -11 0 -7 -7 -8 -17 -4 -10 4 -26 10 -35 12 -37 11 -12 31 37 30 16
0 16 -1 -2 -4z m855 0 c-10 -2 -26 -2 -35 0 -10 3 -2 5 17 5 19 0 27 -2 18 -5z
m262 -1 c0 -16 -28 -47 -36 -39 -4 4 -2 7 4 7 7 0 12 9 12 20 0 11 5 20 10 20
6 0 10 -4 10 -8z m-625 -22 c16 -7 13 -9 -17 -9 -21 -1 -38 4 -38 9 0 12 27
12 55 0z m398 3 c-7 -2 -19 -2 -25 0 -7 3 -2 5 12 5 14 0 19 -2 13 -5z m-923
-33 c11 -8 7 -9 -15 -4 -37 8 -45 14 -19 14 10 0 26 -5 34 -10z m595 0 c4 -6
-8 -10 -29 -10 -19 0 -38 5 -41 10 -4 6 8 10 29 10 19 0 38 -4 41 -10z m55 -4
c0 -3 -7 -12 -17 -21 -13 -13 -13 -19 -3 -25 7 -4 -8 -7 -34 -6 -36 1 -46 5
-46 18 0 11 5 15 15 12 8 -4 27 -3 42 1 21 5 24 8 12 16 -11 7 -9 9 9 9 12 0
22 -2 22 -4z m450 -5 c0 -6 -5 -13 -12 -17 -6 -4 -8 -3 -4 4 3 6 -3 12 -16 15
-20 4 -19 4 5 6 15 0 27 -3 27 -8z m-991 -33 c13 -22 13 -22 -3 -8 -10 8 -30
16 -44 18 -40 5 -40 12 -1 12 25 0 38 -6 48 -22z m620 6 c11 -10 -15 -24 -42
-23 l-32 1 30 7 30 7 -30 12 -30 12 35 -6 c19 -4 37 -8 39 -10z m-456 -31
c-13 -2 -23 -9 -23 -14 0 -12 37 -12 45 1 3 6 13 10 21 10 23 0 16 -20 -8 -21
-14 -1 -5 -6 20 -12 23 -5 42 -13 42 -18 0 -4 -12 -4 -27 1 -16 5 -55 16 -88
26 -53 15 -57 18 -35 25 14 4 36 7 50 7 23 -1 23 -1 3 -5z m-443 -33 c0 -5
-11 -12 -25 -16 -14 -3 -30 -18 -37 -35 -11 -25 -28 -39 -28 -23 0 9 21 44 38
65 17 20 52 26 52 9z m1083 3 c-7 -2 -19 -2 -25 0 -7 3 -2 5 12 5 14 0 19 -2
13 -5z m92 -22 c-6 -6 -25 -6 -45 -1 l-35 8 45 1 c27 1 40 -3 35 -8z m-1047
-18 c12 -3 22 -9 22 -14 0 -14 -17 -10 -52 12 -18 12 -24 18 -13 14 11 -4 30
-10 43 -12z m-143 -13 c-10 -11 -19 -34 -20 -50 -3 -39 -9 -44 -32 -31 -10 6
-12 11 -5 11 6 0 12 10 12 22 0 12 10 32 22 45 26 28 48 31 23 3z m1118 13
c-7 -2 -21 -2 -30 0 -10 3 -4 5 12 5 17 0 24 -2 18 -5z m128 -18 c5 4 9 1 9
-4 0 -6 -7 -11 -15 -11 -9 0 -15 9 -14 23 1 17 2 18 6 4 2 -9 9 -15 14 -12z
m-613 8 c-10 -2 -26 -2 -35 0 -10 3 -2 5 17 5 19 0 27 -2 18 -5z m-548 -13 c0
-5 -8 -10 -17 -10 -15 0 -16 2 -3 10 19 12 20 12 20 0z m625 0 l-40 -7 35 -2
c23 -1 30 -4 22 -10 -19 -12 -62 -1 -62 15 0 10 12 14 43 13 l42 -2 -40 -7z
m-1950 -10 c3 -5 17 -10 30 -10 13 0 26 -4 29 -9 3 -5 25 -14 49 -20 43 -10
76 -35 63 -48 -15 -15 -196 60 -196 82 0 17 16 20 25 5z m1256 -23 c-8 -8 -11
-7 -11 4 0 20 13 34 18 19 3 -7 -1 -17 -7 -23z m216 27 c-3 -3 -12 -4 -19 -1
-8 3 -5 6 6 6 11 1 17 -2 13 -5z m-87 -8 c0 -2 -7 -6 -15 -10 -8 -3 -15 -1
-15 4 0 6 7 10 15 10 8 0 15 -2 15 -4z m1057 -18 c-3 -8 -6 -5 -6 6 -1 11 2
17 5 13 3 -3 4 -12 1 -19z m-897 -9 c0 -4 -7 -6 -15 -3 -8 4 -15 10 -15 15 0
4 7 6 15 3 8 -4 15 -10 15 -15z m540 11 c11 -8 8 -9 -12 -4 -36 8 -37 -12 -2
-20 15 -4 24 -9 22 -11 -2 -2 -21 1 -41 7 -33 10 -35 12 -19 24 21 16 32 17
52 4z m83 3 c-13 -2 -33 -2 -45 0 -13 2 -3 4 22 4 25 0 35 -2 23 -4z m-993
-13 c0 -5 -4 -10 -10 -10 -5 0 -10 -12 -10 -26 0 -22 4 -25 21 -21 15 4 19 3
12 -4 -6 -6 -19 -9 -29 -7 -15 3 -18 10 -15 33 1 17 5 33 8 38 6 10 23 9 23
-3z m270 -21 c0 -13 -5 -16 -16 -12 -13 5 -13 7 -2 14 9 6 7 9 -9 9 -12 0 -24
4 -27 8 -3 5 8 6 25 4 20 -3 29 -10 29 -23z m145 11 c3 -5 -1 -10 -10 -10 -9
0 -13 5 -10 10 3 6 8 10 10 10 2 0 7 -4 10 -10z m882 -37 c-3 -10 -5 -2 -5 17
0 19 2 27 5 18 2 -10 2 -26 0 -35z m-970 15 c-3 -8 -6 -5 -6 6 -1 11 2 17 5
13 3 -3 4 -12 1 -19z m687 16 c15 -6 15 -8 -1 -19 -17 -12 -16 -14 7 -19 14
-3 36 -7 50 -9 15 -3 8 -5 -17 -6 -23 0 -45 4 -48 9 -3 6 -18 10 -33 11 -26 0
-26 1 -4 9 12 5 22 12 22 15 0 4 -4 4 -9 1 -5 -4 -20 -2 -33 3 -21 9 -19 10
14 10 20 1 44 -2 52 -5z m-914 -16 c0 -4 -9 -8 -20 -8 -11 0 -20 4 -20 8 0 4
9 8 20 8 11 0 20 -4 20 -8z m406 -23 c-8 -8 -20 -15 -27 -15 -7 0 -4 6 7 15
25 19 40 19 20 0z m150 -29 c29 -16 21 -26 -20 -26 -29 0 -29 1 -10 15 14 11
15 15 4 14 -8 -1 -26 3 -40 9 -24 11 -23 12 8 6 18 -3 44 -12 58 -18z m-576
-1 c-7 -9 -15 -13 -17 -11 -7 7 7 26 19 26 6 0 6 -6 -2 -15z m463 -96 c-4 -4
-6 15 -3 44 l5 52 3 -44 c2 -24 0 -47 -5 -52z m204 75 c-3 -3 -12 -4 -19 -1
-8 3 -5 6 6 6 11 1 17 -2 13 -5z m466 -1 c-7 -2 -21 -2 -30 0 -10 3 -4 5 12 5
17 0 24 -2 18 -5z m-614 -17 c9 -11 8 -15 -5 -20 -23 -9 -24 -8 -24 14 0 23
13 26 29 6z m-409 -6 c0 -5 -2 -10 -4 -10 -3 0 -8 5 -11 10 -3 6 -1 10 4 10 6
0 11 -4 11 -10z m457 4 c-3 -3 -12 -4 -19 -1 -8 3 -5 6 6 6 11 1 17 -2 13 -5z
m154 -12 c-7 -2 -18 1 -23 6 -8 8 -4 9 13 5 13 -4 18 -8 10 -11z m432 11 c-7
-2 -19 -2 -25 0 -7 3 -2 5 12 5 14 0 19 -2 13 -5z m-966 -39 c-5 -5 -57 13
-57 20 0 3 14 0 31 -6 16 -6 28 -12 26 -14z m203 22 c0 -3 -4 -8 -10 -11 -5
-3 -10 -1 -10 4 0 6 5 11 10 11 6 0 10 -2 10 -4z m227 -2 c-3 -3 -12 -4 -19
-1 -8 3 -5 6 6 6 11 1 17 -2 13 -5z m205 -22 c6 -6 0 -8 -16 -5 -15 3 -26 1
-26 -6 0 -6 9 -11 20 -11 11 0 20 -4 20 -10 0 -5 -9 -10 -20 -10 -11 0 -20 4
-20 9 0 14 -31 22 -44 12 -7 -6 -16 -4 -24 5 -11 12 -6 14 30 16 l43 1 -45 7
c-42 7 -40 7 14 5 32 -2 63 -8 68 -13z m-564 -2 c-14 -4 -32 -11 -40 -15 -7
-3 -4 1 6 9 11 9 29 16 40 15 17 -1 16 -2 -6 -9z m289 -6 c-3 -3 -12 -4 -19
-1 -8 3 -5 6 6 6 11 1 17 -2 13 -5z m388 -25 c17 -1 22 -3 13 -6 -10 -2 -18
-11 -18 -19 0 -8 -4 -14 -10 -14 -5 0 -10 6 -10 13 0 8 -11 20 -25 27 -14 7
-25 17 -25 22 0 5 10 2 22 -6 12 -9 36 -17 53 -17z m-622 14 c-7 -2 -19 -2
-25 0 -7 3 -2 5 12 5 14 0 19 -2 13 -5z m377 -3 c0 -5 -4 -10 -10 -10 -5 0
-10 5 -10 10 0 6 5 10 10 10 6 0 10 -4 10 -10z m-305 -20 c3 -5 1 -10 -4 -10
-6 0 -11 5 -11 10 0 6 2 10 4 10 3 0 8 -4 11 -10z m142 -16 c-3 -3 -12 -4 -19
-1 -8 3 -5 6 6 6 11 1 17 -2 13 -5z m283 -4 c0 -5 -9 -10 -20 -10 -11 0 -20 5
-20 10 0 6 9 10 20 10 11 0 20 -4 20 -10z m198 3 c-10 -2 -26 -2 -35 0 -10 3
-2 5 17 5 19 0 27 -2 18 -5z m-984 -38 c17 -7 60 -22 96 -33 36 -12 79 -25 95
-31 17 -6 138 -45 270 -87 338 -108 356 -114 386 -130 37 -19 69 -66 69 -102
0 -28 -29 -133 -49 -177 -5 -11 -17 -42 -28 -68 -17 -46 -64 -95 -105 -110
-17 -6 -123 22 -186 49 -18 8 -39 14 -47 14 -8 0 -29 6 -47 14 -18 8 -100 35
-183 61 -82 26 -157 50 -165 54 -8 4 -49 18 -90 30 -41 13 -106 35 -145 48
-38 14 -83 27 -99 30 -34 7 -103 72 -112 107 -4 17 9 60 42 138 64 154 86 187
136 208 28 12 119 3 162 -15z m989 18 c-7 -2 -19 -2 -25 0 -7 3 -2 5 12 5 14
0 19 -2 13 -5z m62 -3 c3 -5 -1 -10 -9 -10 -9 0 -16 5 -16 10 0 6 4 10 9 10 6
0 13 -4 16 -10z m-115 -4 c0 -3 -4 -8 -10 -11 -5 -3 -10 -1 -10 4 0 6 5 11 10
11 6 0 10 -2 10 -4z m159 -29 c0 -21 -1 -21 -9 -2 -12 28 -12 37 0 30 6 -3 10
-16 9 -28z m-532 -3 c-3 -3 -12 -4 -19 -1 -8 3 -5 6 6 6 11 1 17 -2 13 -5z
m123 -42 c0 -15 -2 -15 -10 -2 -13 20 -13 33 0 25 6 -3 10 -14 10 -23z m132
-4 c-8 -8 -9 -4 -5 13 4 13 8 18 11 10 2 -7 -1 -18 -6 -23z m213 2 c3 -5 1
-10 -4 -10 -6 0 -11 5 -11 10 0 6 2 10 4 10 3 0 8 -4 11 -10z m-272 -16 c-2
-7 -13 -9 -24 -7 -30 8 -30 18 1 18 16 0 26 -5 23 -11z m84 -8 c-3 -8 -1 -17
6 -19 7 -2 9 -8 5 -12 -4 -4 -13 -3 -20 3 -7 5 -24 12 -38 15 -21 3 -19 5 8 6
19 0 31 5 27 11 -3 6 -1 10 5 10 7 0 10 -6 7 -14z m223 7 c-1 -11 -26 -43 -33
-43 -4 0 -1 11 5 25 10 23 28 35 28 18z m-70 -13 c0 -5 -9 -10 -20 -10 -11 0
-20 5 -20 10 0 6 9 10 20 10 11 0 20 -4 20 -10z m-87 -37 c-7 -2 -19 -2 -25 0
-7 3 -2 5 12 5 14 0 19 -2 13 -5z m465 -242 c48 -16 138 -45 201 -65 62 -20
120 -43 127 -51 16 -16 18 -51 4 -60 -5 -3 -10 -17 -10 -30 0 -13 -4 -26 -9
-29 -5 -3 -12 -18 -16 -33 -3 -16 -12 -41 -19 -58 -7 -16 -20 -48 -29 -70 -8
-22 -22 -60 -32 -85 -9 -25 -23 -60 -31 -78 -8 -18 -14 -39 -14 -46 0 -7 -8
-23 -19 -34 -22 -27 -93 -30 -137 -7 -16 8 -37 15 -47 15 -10 0 -30 6 -45 14
-15 7 -78 31 -140 51 -74 25 -116 45 -123 57 -12 23 -3 87 17 126 8 15 14 35
14 44 0 9 4 19 9 22 5 3 21 41 37 83 15 43 31 82 36 88 4 5 8 18 8 30 0 11 7
29 15 39 8 11 15 28 15 39 0 10 8 29 18 42 23 33 63 32 170 -4z m-1747 -158
c1 -5 2 -23 4 -41 3 -36 -7 -36 -11 1 -1 12 -3 25 -3 29 -1 4 -11 9 -23 11
-20 4 -19 4 5 6 15 0 27 -2 28 -6z m97 -31 c-23 -4 -81 12 -85 24 -2 7 17 4
48 -5 29 -9 45 -17 37 -19z m2154 24 c18 -8 60 -22 93 -31 33 -10 76 -23 95
-30 19 -7 60 -20 90 -29 137 -43 140 -45 140 -81 0 -19 -6 -49 -14 -67 -8 -18
-22 -53 -31 -78 -10 -25 -21 -54 -26 -65 -9 -22 -42 -107 -66 -170 -9 -22 -22
-54 -29 -72 -8 -17 -14 -36 -14 -41 0 -6 -21 -14 -46 -18 -37 -5 -63 -1 -137
25 -51 18 -105 36 -122 41 -86 25 -181 64 -192 78 -17 21 -16 46 1 85 13 31
33 82 63 162 9 22 22 54 29 72 8 17 14 34 14 38 0 4 6 21 14 38 7 18 21 52 32
77 16 41 48 79 66 80 4 0 22 -6 40 -14z m-2282 -14 c0 -5 -10 -13 -22 -19 -22
-10 -22 -10 10 -17 17 -4 32 -12 32 -17 0 -11 0 -11 -39 2 -35 12 -35 12 -19
39 13 20 38 28 38 12z m200 -38 c0 -2 -9 -4 -20 -4 -11 0 -20 4 -20 9 0 5 9 7
20 4 11 -3 20 -7 20 -9z m-85 -4 c-3 -5 -10 -10 -16 -10 -5 0 -9 5 -9 10 0 6
7 10 16 10 8 0 12 -4 9 -10z m198 -27 c-7 -2 -19 -2 -25 0 -7 3 -2 5 12 5 14
0 19 -2 13 -5z m-88 -33 c17 -2 -29 -19 -50 -18 -16 0 -15 2 5 8 24 8 23 8 -7
9 -18 1 -33 5 -33 10 0 5 16 5 38 0 20 -5 42 -9 47 -9z m54 4 c2 -2 2 -7 -1
-10 -4 -3 -19 2 -35 10 l-28 16 30 -6 c17 -4 32 -8 34 -10z m129 0 c15 -4 7
-24 -9 -24 -6 0 -7 5 -4 10 3 6 -2 10 -12 10 -10 0 -25 5 -33 10 -11 8 -7 9
15 4 17 -3 36 -8 43 -10z m-43 -24 c3 -5 2 -10 -4 -10 -5 0 -13 5 -16 10 -3 6
-2 10 4 10 5 0 13 -4 16 -10z m113 -7 c-10 -2 -26 -2 -35 0 -10 3 -2 5 17 5
19 0 27 -2 18 -5z m57 -13 c-3 -5 -1 -10 6 -10 7 0 10 -3 6 -6 -10 -10 -39 5
-32 16 3 5 11 10 16 10 6 0 7 -4 4 -10z m-138 -6 c-3 -3 -12 -4 -19 -1 -8 3
-5 6 6 6 11 1 17 -2 13 -5z m69 -18 c20 -21 17 -28 -6 -14 -11 7 -20 16 -20
20 0 12 10 9 26 -6z m144 4 c0 -5 -4 -10 -9 -10 -6 0 -13 5 -16 10 -3 6 1 10
9 10 9 0 16 -4 16 -10z m75 -35 c0 -5 -15 -11 -32 -12 -32 -3 -45 10 -20 21
19 8 52 2 52 -9z m-165 -15 c0 -5 -2 -10 -4 -10 -3 0 -8 5 -11 10 -3 6 -1 10
4 10 6 0 11 -4 11 -10z m209 -11 c-18 -11 -39 -11 -39 0 0 11 31 20 44 13 4
-2 2 -8 -5 -13z m54 4 c-7 -2 -19 -2 -25 0 -7 3 -2 5 12 5 14 0 19 -2 13 -5z
m-122 -26 c-5 -5 -17 -5 -28 2 -16 9 -15 10 9 9 16 -2 24 -6 19 -11z m209 -1
c0 -9 -30 -14 -35 -6 -4 6 3 10 14 10 12 0 21 -2 21 -4z m-172 -13 c-10 -2
-18 -9 -18 -14 0 -5 -5 -9 -11 -9 -8 0 -8 5 1 15 7 8 20 14 29 14 13 -1 13 -2
-1 -6z m40 -10 c-10 -2 -18 -9 -18 -14 0 -5 -8 -9 -17 -9 -16 1 -16 2 1 15 11
8 27 14 35 14 13 -1 12 -2 -1 -6z m221 -9 c2 -2 -14 -4 -37 -4 -23 0 -42 4
-42 9 0 9 69 4 79 -5z m-185 -13 c3 -4 3 -11 0 -14 -8 -8 -34 3 -34 14 0 11
27 12 34 0z m36 -31 c0 -5 -4 -10 -9 -10 -6 0 -13 5 -16 10 -3 6 1 10 9 10 9
0 16 -4 16 -10z m188 -7 c-10 -2 -26 -2 -35 0 -10 3 -2 5 17 5 19 0 27 -2 18
-5z m116 -32 c-5 -21 -3 -23 6 -11 9 12 11 12 8 1 -7 -26 -28 -24 -28 3 0 14
-4 26 -10 26 -5 0 -10 4 -10 9 0 5 9 7 20 4 15 -4 19 -11 14 -32z m-114 5 c0
-2 -11 -6 -25 -8 -13 -3 -22 -1 -19 3 5 9 44 13 44 5z m85 -45 c-3 -6 -11 -11
-16 -11 -5 0 -4 6 3 14 14 16 24 13 13 -3z"/>
<path d="M16368 4333 c6 -2 18 -2 25 0 6 3 1 5 -13 5 -14 0 -19 -2 -12 -5z"/>
<path d="M15108 3471 c-15 -12 -30 -30 -33 -41 -8 -25 12 -90 34 -110 38 -36
162 -80 223 -80 38 0 50 5 67 26 41 52 15 134 -53 164 -99 43 -118 50 -163 56
-40 5 -53 2 -75 -15z"/>
<path d="M15562 3333 c-32 -6 -56 -57 -48 -106 7 -42 47 -90 81 -95 11 -2 40
-12 64 -23 49 -22 150 -26 169 -7 7 7 12 37 12 68 0 58 -19 100 -46 100 -8 0
-14 4 -14 10 0 5 -12 12 -27 16 -16 3 -48 12 -73 19 -61 18 -91 23 -118 18z"/>
<path d="M16480 3220 c-27 -9 -20 -13 20 -12 l25 1 -25 -8 c-14 -4 -33 -4 -43
1 -14 7 -25 5 -40 -9 -122 -103 -149 -226 -73 -338 48 -71 92 -95 172 -95 96
0 170 45 211 129 25 53 24 174 -3 226 -23 44 -87 94 -121 95 -12 0 -25 5 -28
10 -7 12 -59 12 -95 0z m-50 -60 c-32 -24 -42 -14 -11 11 13 11 27 17 30 14 3
-4 -5 -15 -19 -25z m-47 -45 c-3 -9 -8 -14 -10 -11 -3 3 -2 9 2 15 9 16 15 13
8 -4z"/>
<path d="M17063 3033 c-13 -2 -23 -8 -23 -13 0 -5 10 -11 23 -13 l22 -4 -22
-2 c-13 0 -23 -5 -23 -11 0 -5 -7 -10 -15 -10 -8 0 -15 -5 -15 -11 0 -7 -9 -9
-23 -5 -45 11 -97 -81 -97 -169 0 -68 22 -118 76 -171 90 -88 218 -78 311 25
29 33 63 113 63 150 0 33 -30 133 -48 156 -37 51 -158 92 -229 78z"/>
<path d="M17012 3011 c2 -7 7 -12 11 -12 12 1 9 15 -3 20 -7 2 -11 -2 -8 -8z"/>
<path d="M16985 2990 c-3 -5 1 -10 9 -10 9 0 16 5 16 10 0 6 -4 10 -9 10 -6 0
-13 -4 -16 -10z"/>
</g>
</svg>
